<mxfile host="app.diagrams.net" modified="2024-05-04T11:29:29.773Z" agent="Mozilla/5.0 (Windows NT 10.0; Win64; x64) AppleWebKit/537.36 (KHTML, like Gecko) Chrome/124.0.0.0 Safari/537.36 Edg/124.0.0.0" version="24.3.1" etag="VRfLfn4UsSHivU9Sfhid" type="github">
  <diagram name="第 1 页" id="ebwwkFB6ehb1pQTeP1o0">
    <mxGraphModel>
      <root>
        <mxCell id="0" />
        <mxCell id="1" parent="0" />
      </root>
    </mxGraphModel>
  </diagram>
</mxfile>
